<svg width="32" height="32" viewBox="0 0 32 32" fill="none" xmlns="http://www.w3.org/2000/svg">
<rect y="0.453369" width="31.4338" height="31.4338" rx="15.7169" fill="#EDEDED"/>
<path d="M17.2169 8.17041C16.8191 8.17041 16.4376 8.32845 16.1563 8.60975C15.875 8.89105 15.7169 9.27259 15.7169 9.67041C15.7169 10.0682 15.875 10.4498 16.1563 10.7311C16.4376 11.0124 16.8191 11.1704 17.2169 11.1704C17.6147 11.1704 17.9963 11.0124 18.2776 10.7311C18.5589 10.4498 18.7169 10.0682 18.7169 9.67041C18.7169 9.27259 18.5589 8.89105 18.2776 8.60975C17.9963 8.32845 17.6147 8.17041 17.2169 8.17041ZM16.8569 12.9404C15.6669 13.0404 12.4169 15.6304 12.4169 15.6304C12.2169 15.7804 12.2769 15.7704 12.4369 16.0504C12.5969 16.3204 12.5769 16.3404 12.7669 16.2104C12.9669 16.0804 13.2969 15.8704 13.8469 15.5304C15.9669 14.1704 14.1869 17.3104 13.2769 22.6004C12.9169 25.2204 15.2769 23.8704 15.8869 23.4704C16.4869 23.0804 18.0969 21.9704 18.2569 21.8604C18.4769 21.7104 18.3169 21.5904 18.1469 21.3404C18.0269 21.1704 17.9069 21.2904 17.9069 21.2904C17.2569 21.7204 16.0669 22.6204 15.9069 22.0504C15.7169 21.4804 16.9369 17.5704 17.6069 14.8804C17.7169 14.2404 18.0169 12.8404 16.8569 12.9404Z" fill="#3A3A3A"/>
</svg>
