<svg width="73" height="74" viewBox="0 0 73 74" fill="none" xmlns="http://www.w3.org/2000/svg">
<path d="M19.5729 61.4775C15.0129 61.4775 11.1229 59.8857 7.90288 56.702C4.68288 53.4982 3.07288 49.5947 3.07288 44.9916C3.07288 41.0375 4.24288 37.5091 6.58288 34.4066C8.94288 31.3041 12.0229 29.327 15.8229 28.4754C17.0829 23.8115 19.5829 20.0398 23.3229 17.1604C27.0829 14.2607 31.3329 12.8108 36.0729 12.8108C41.9329 12.8108 46.8929 14.8791 50.9529 19.0158C55.0329 23.1322 57.0729 28.1611 57.0729 34.1025C60.5329 34.508 63.3929 36.0288 65.6529 38.665C67.9329 41.2605 69.0729 44.3022 69.0729 47.79C69.0729 51.6022 67.7629 54.8365 65.1429 57.4929C62.5229 60.1493 59.3329 61.4775 55.5729 61.4775H39.0729C37.4329 61.4775 36.0229 60.8793 34.8429 59.6829C33.6629 58.5068 33.0729 57.0772 33.0729 55.3941V39.7295L28.2729 44.4441L24.0729 40.1858L36.0729 28.0191L48.0729 40.1858L43.8729 44.4441L39.0729 39.7295V55.3941H55.5729C57.6729 55.3941 59.4429 54.654 60.8829 53.1737C62.3429 51.7137 63.0729 49.9191 63.0729 47.79C63.0729 45.6608 62.3429 43.8662 60.8829 42.4062C59.4429 40.9259 57.6729 40.1858 55.5729 40.1858H51.0729V34.1025C51.0729 29.905 49.6129 26.3158 46.6929 23.335C43.7729 20.3744 40.2329 18.8941 36.0729 18.8941C31.9329 18.8941 28.3929 20.3744 25.4529 23.335C22.5329 26.3158 21.0729 29.905 21.0729 34.1025H19.5729C16.6729 34.1025 14.2029 35.1468 12.1629 37.2354C10.1029 39.3037 9.07288 41.808 9.07288 44.7483C9.07288 47.6886 10.1029 50.2233 12.1629 52.3525C14.2029 54.3802 16.6729 55.3941 19.5729 55.3941H27.0729V61.4775" fill="#023EED"/>
</svg>
