<svg width="33" height="33" viewBox="0 0 33 33" fill="none" xmlns="http://www.w3.org/2000/svg">
<g clip-path="url(#clip0_311_1007)">
<path d="M32.3114 23.0254L25.6448 29.6921L20.9781 25.0254L22.9781 23.0254L25.6448 25.6921L30.3114 21.0254L32.3114 23.0254ZM18.4448 26.8921C17.9114 27.0254 17.5114 27.0254 16.9781 27.0254C11.1114 27.0254 6.31144 22.2254 6.31144 16.3587C6.31144 10.4921 11.1114 5.69206 16.9781 5.69206C22.8448 5.69206 27.6448 10.4921 27.6448 16.3587C27.6448 16.8921 27.6448 17.2921 27.5114 17.8254C28.4448 17.9587 29.2448 18.2254 30.0448 18.6254C30.1781 17.8254 30.3114 17.1587 30.3114 16.3587C30.3114 9.02539 24.3114 3.02539 16.9781 3.02539C9.64478 3.02539 3.64478 9.02539 3.64478 16.3587C3.64478 23.6921 9.64478 29.6921 16.9781 29.6921C17.7781 29.6921 18.5781 29.5587 19.2448 29.4254C18.8448 28.7587 18.5781 27.8254 18.4448 26.8921ZM21.7781 19.1587L17.6448 16.7587V9.69206H15.6448V17.6921L20.3114 20.4921C20.7114 19.9587 21.2448 19.5587 21.7781 19.1587Z" fill="#62646E"/>
</g>
<defs>
<clipPath id="clip0_311_1007">
<rect width="32" height="32" fill="white" transform="translate(0.978027 0.358643)"/>
</clipPath>
</defs>
</svg>
