<svg width="25" height="25" viewBox="0 0 25 25" fill="none" xmlns="http://www.w3.org/2000/svg">
<path d="M15.4152 4.40381C16.476 4.40381 17.4934 4.82524 18.2436 5.57538C18.9937 6.32553 19.4152 7.34294 19.4152 8.40381C19.4152 9.46467 18.9937 10.4821 18.2436 11.2322C17.4934 11.9824 16.476 12.4038 15.4152 12.4038C14.3543 12.4038 13.3369 11.9824 12.5867 11.2322C11.8366 10.4821 11.4152 9.46467 11.4152 8.40381C11.4152 7.34294 11.8366 6.32553 12.5867 5.57538C13.3369 4.82524 14.3543 4.40381 15.4152 4.40381ZM15.4152 6.30381C14.8582 6.30381 14.3241 6.52506 13.9302 6.91888C13.5364 7.31271 13.3152 7.84685 13.3152 8.40381C13.3152 8.96076 13.5364 9.49491 13.9302 9.88873C14.3241 10.2826 14.8582 10.5038 15.4152 10.5038C16.5752 10.5038 17.5152 9.56381 17.5152 8.40381C17.5152 7.24381 16.5752 6.30381 15.4152 6.30381ZM15.4152 13.4038C18.0852 13.4038 23.4152 14.7338 23.4152 17.4038V20.4038H7.41516V17.4038C7.41516 14.7338 12.7452 13.4038 15.4152 13.4038ZM15.4152 15.3038C12.4152 15.3038 9.31516 16.7638 9.31516 17.4038V18.5038H21.5152V17.4038C21.5152 16.7638 18.3852 15.3038 15.4152 15.3038ZM5.41516 13.6838L2.91516 15.1738L3.59516 12.3638L1.41516 10.4838L4.28516 10.2338L5.41516 7.59381L6.52516 10.2338L9.41516 10.4838L7.21516 12.3638L7.86516 15.1738L5.41516 13.6838Z" fill="#737891"/>
</svg>
