<svg width="25" height="25" viewBox="0 0 25 25" fill="none" xmlns="http://www.w3.org/2000/svg">
<g clip-path="url(#clip0_302_637)">
<path d="M15.4151 22.4038H17.4151V24.4038H15.4151M11.4151 22.4038H13.4151V24.4038H11.4151M7.41514 22.4038H9.41514V24.4038H7.41514M15.4151 20.2838C15.4551 20.5838 15.3551 20.9038 15.1251 21.1138C14.7351 21.5038 14.1051 21.5038 13.7151 21.1138L9.70514 17.1038C9.47514 16.8738 9.37514 16.5638 9.41514 16.2738V11.1538L4.62514 5.02381C4.28514 4.59381 4.36514 3.96381 4.79514 3.62381C4.98514 3.48381 5.19514 3.40381 5.41514 3.40381H19.4151C19.6351 3.40381 19.8451 3.48381 20.0351 3.62381C20.4651 3.96381 20.5451 4.59381 20.2051 5.02381L15.4151 11.1538V20.2838ZM7.45514 5.40381L11.4151 10.4638V15.9838L13.4151 17.9838V10.4538L17.3751 5.40381H7.45514Z" fill="#012386"/>
</g>
<defs>
<clipPath id="clip0_302_637">
<rect width="24" height="24" fill="white" transform="translate(0.415161 0.403809)"/>
</clipPath>
</defs>
</svg>
