<svg width="24" height="24" viewBox="0 0 24 24" fill="none" xmlns="http://www.w3.org/2000/svg">
<g clip-path="url(#clip0_308_888)">
<path d="M11.925 2.95927C11.9336 2.95908 11.9678 2.95831 12.0426 3.01009L22.6848 11.7086L22.6982 11.7193C22.7083 11.7272 22.7565 11.7813 22.7721 11.9043C22.7791 11.9591 22.7767 12.0108 22.7685 12.0519C22.7602 12.0944 22.7488 12.1104 22.7506 12.1078C22.7428 12.1189 22.7118 12.1493 22.6394 12.1552C22.5655 12.1613 22.5111 12.1359 22.4875 12.1142L22.4737 12.1015L22.4591 12.0896L12.3177 3.80385L11.9135 3.47359L11.5093 3.80385L1.36779 12.0896L1.35335 12.1014L1.33961 12.114C1.31748 12.1344 1.26806 12.1581 1.19609 12.1518C1.12586 12.1456 1.08304 12.1152 1.06463 12.0917C1.06398 12.0902 1.04103 12.0486 1.06367 11.9363C1.08587 11.8263 1.13791 11.73 1.17937 11.6783L11.7747 3.01798C11.8567 2.96653 11.9065 2.95961 11.925 2.95927ZM4.13772 12.5058L4.54283 12.1737V19.7447V20.3835H5.18172H8.8281H9.46699V19.7447V17.1311C9.46699 15.7083 10.5924 14.5755 11.9135 14.5755C13.2346 14.5755 14.3599 15.7083 14.3599 17.1311V19.7447V20.3835H14.9988H18.6452H19.2841V19.7447V12.1735L19.6893 12.5056V20.6155C19.6892 20.7655 19.5775 20.8481 19.4866 20.8481H14.1574C14.0662 20.8481 13.9549 20.7653 13.9549 20.6158V17.1311C13.9549 15.9798 13.0785 15.0401 11.9135 15.0401C10.7484 15.0401 9.87208 15.9799 9.87208 17.1311V20.6158C9.87208 20.7652 9.76062 20.8481 9.66954 20.8481H4.34028C4.24885 20.8481 4.13772 20.7653 4.13772 20.6161V12.5058Z" stroke="#012386"/>
</g>
<defs>
<clipPath id="clip0_308_888">
<rect width="23" height="23" fill="white" transform="translate(0.415161 0.403809)"/>
</clipPath>
</defs>
</svg>
