<svg width="25" height="25" viewBox="0 0 25 25" fill="none" xmlns="http://www.w3.org/2000/svg">
<path d="M8.41516 12.5438V2.40381H6.41516V12.5438C4.69516 12.9938 3.41516 14.5438 3.41516 16.4038C3.41516 18.2638 4.69516 19.8138 6.41516 20.2638V22.4038H8.41516V20.2638C10.1352 19.8138 11.4152 18.2638 11.4152 16.4038C11.4152 14.5438 10.1352 12.9938 8.41516 12.5438ZM7.41516 14.4038C8.51516 14.4038 9.41516 15.3038 9.41516 16.4038C9.41516 17.5038 8.51516 18.4038 7.41516 18.4038C6.31516 18.4038 5.41516 17.5038 5.41516 16.4038C5.41516 15.3038 6.31516 14.4038 7.41516 14.4038ZM18.4152 2.40381H16.4152V4.54381C14.6952 4.99381 13.4152 6.54381 13.4152 8.40381C13.4152 10.2638 14.6952 11.8138 16.4152 12.2638V22.4038H18.4152V12.2638C20.1352 11.8138 21.4152 10.2638 21.4152 8.40381C21.4152 6.54381 20.1352 4.99381 18.4152 4.54381V2.40381ZM17.4152 6.40381C18.5152 6.40381 19.4152 7.30381 19.4152 8.40381C19.4152 9.50381 18.5152 10.4038 17.4152 10.4038C16.3152 10.4038 15.4152 9.50381 15.4152 8.40381C15.4152 7.30381 16.3152 6.40381 17.4152 6.40381Z" fill="#737891"/>
</svg>
