<svg width="23" height="23" viewBox="0 0 23 23" fill="none" xmlns="http://www.w3.org/2000/svg">
<g clip-path="url(#clip0_302_629)">
<path d="M9.38624 9.45436C8.56892 9.45436 7.76997 9.21192 7.09048 8.75772C6.41099 8.30351 5.8815 7.65796 5.56901 6.90274C5.25651 6.14753 5.17506 5.31658 5.33496 4.51506C5.49485 3.71354 5.88891 2.97746 6.46727 2.39995C7.04562 1.82245 7.78229 1.42948 8.58405 1.27077C9.38581 1.11207 10.2166 1.19475 10.9714 1.50836C11.7261 1.82197 12.3709 2.35242 12.8241 3.03258C13.2773 3.71274 13.5186 4.51205 13.5173 5.32936C13.5141 6.42345 13.0776 7.4717 12.3034 8.24477C11.5292 9.01783 10.4803 9.45275 9.38624 9.45436ZM9.38624 2.42047C8.81091 2.42047 8.24851 2.59108 7.77014 2.91071C7.29178 3.23034 6.91894 3.68465 6.69877 4.21618C6.47861 4.74771 6.421 5.33259 6.53324 5.89686C6.64548 6.46113 6.92252 6.97944 7.32934 7.38626C7.73616 7.79307 8.25447 8.07012 8.81874 8.18236C9.38301 8.2946 9.96789 8.23699 10.4994 8.01683C11.0309 7.79666 11.4853 7.42382 11.8049 6.94545C12.1245 6.46709 12.2951 5.90469 12.2951 5.32936C12.2951 4.55788 11.9887 3.81799 11.4431 3.27247C10.8976 2.72695 10.1577 2.42047 9.38624 2.42047Z" fill="#737891"/>
<path d="M10.4496 19.7638C10.316 19.6302 10.213 19.4693 10.1476 19.292C10.0821 19.1148 10.0559 18.9255 10.0707 18.7372H2.85955V15.2049C3.72605 14.2804 4.77704 13.548 5.9445 13.0554C7.11195 12.5627 8.36985 12.3207 9.63677 12.3449H10.0768C10.0487 12.1401 10.0683 11.9315 10.134 11.7354C10.1997 11.5393 10.3098 11.361 10.4557 11.2144L10.529 11.1472C10.2418 11.1472 9.91788 11.1105 9.63677 11.1105C8.14591 11.0751 6.66581 11.3714 5.30349 11.9781C3.94117 12.5847 2.73068 13.4865 1.75955 14.6183C1.68022 14.7241 1.63733 14.8527 1.63733 14.9849V18.7372C1.63733 19.0613 1.7661 19.3722 1.99531 19.6014C2.22452 19.8306 2.5354 19.9594 2.85955 19.9594H10.6207L10.4496 19.7638Z" fill="#737891"/>
<path d="M16.8357 10.3587C16.8659 10.3524 16.8971 10.3524 16.9274 10.3587C16.8971 10.3532 16.866 10.3532 16.8357 10.3587Z" fill="#737891"/>
<path d="M20.9974 14.6549L19.7752 14.2821C19.6878 13.9832 19.569 13.6943 19.4207 13.4204L20.0318 12.2838C20.0517 12.2383 20.0565 12.1877 20.0455 12.1393C20.0345 12.0909 20.0083 12.0473 19.9707 12.0149L19.0846 11.1288C19.0511 11.0925 19.0064 11.0685 18.9576 11.0608C18.9088 11.053 18.8589 11.0619 18.8157 11.086L17.6913 11.6971C17.4144 11.5414 17.1214 11.4164 16.8174 11.3243L16.4446 10.1021C16.4288 10.0571 16.3988 10.0185 16.3591 9.99203C16.3194 9.96557 16.2722 9.95273 16.2246 9.95543H14.9718C14.9237 9.95488 14.8767 9.97011 14.8381 9.99881C14.7995 10.0275 14.7713 10.0681 14.758 10.1143L14.3852 11.3365C14.0791 11.4256 13.7839 11.5486 13.5052 11.7032L12.393 11.0921C12.3508 11.0685 12.3018 11.0598 12.2541 11.0676C12.2064 11.0754 12.1627 11.0991 12.1302 11.1349L11.2257 12.0149C11.1922 12.0502 11.1706 12.0952 11.164 12.1434C11.1575 12.1917 11.1662 12.2408 11.1891 12.2838L11.8002 13.396C11.6385 13.6714 11.5094 13.9647 11.4152 14.2699L10.193 14.6365C10.1467 14.6499 10.1062 14.6781 10.0775 14.7167C10.0488 14.7553 10.0335 14.8023 10.0341 14.8504V16.1032C10.0377 16.1474 10.0549 16.1893 10.0834 16.2232C10.1118 16.2571 10.1501 16.2814 10.193 16.2927L11.4152 16.6654C11.5055 16.9652 11.6285 17.2542 11.7819 17.5271L11.1707 18.6943C11.1474 18.7361 11.1384 18.7844 11.145 18.8319C11.1516 18.8793 11.1735 18.9233 11.2074 18.9571L12.0935 19.8432C12.1281 19.8777 12.1728 19.9005 12.221 19.9081C12.2693 19.9158 12.3188 19.9081 12.3624 19.886L13.5052 19.2749C13.7771 19.4211 14.064 19.5379 14.3607 19.6232L14.7274 20.8454C14.7424 20.8907 14.771 20.9302 14.8093 20.9586C14.8476 20.987 14.8936 21.003 14.9413 21.0043H16.1941C16.242 21.0039 16.2885 20.9883 16.3269 20.9597C16.3653 20.9312 16.3937 20.8912 16.408 20.8454L16.7807 19.5927C17.0736 19.5073 17.3563 19.3905 17.6241 19.2443L18.7791 19.8554C18.8215 19.878 18.8702 19.886 18.9177 19.8783C18.9651 19.8706 19.0087 19.8475 19.0418 19.8127L19.9707 18.9815C19.9957 18.9457 20.0091 18.903 20.0091 18.8593C20.0091 18.8156 19.9957 18.773 19.9707 18.7371L19.3596 17.5882C19.508 17.3186 19.6268 17.0338 19.7141 16.7388L20.9363 16.366C20.9825 16.3526 21.0231 16.3245 21.0518 16.2858C21.0805 16.2472 21.0957 16.2002 21.0952 16.1521V14.8688C21.1008 14.8275 21.0946 14.7855 21.0773 14.7477C21.06 14.7098 21.0323 14.6776 20.9974 14.6549ZM15.6013 17.5149C15.1971 17.5161 14.8016 17.3972 14.465 17.1734C14.1284 16.9496 13.8659 16.6309 13.7106 16.2577C13.5554 15.8845 13.5144 15.4736 13.593 15.0771C13.6716 14.6806 13.8661 14.3163 14.1519 14.0305C14.4377 13.7447 14.802 13.5501 15.1985 13.4716C15.595 13.393 16.0059 13.434 16.3791 13.5892C16.7523 13.7444 17.071 14.007 17.2949 14.3436C17.5187 14.6802 17.6375 15.0757 17.6363 15.4799C17.6347 16.0191 17.4198 16.5358 17.0385 16.9171C16.6572 17.2983 16.1405 17.5133 15.6013 17.5149Z" fill="#737891"/>
</g>
<defs>
<clipPath id="clip0_302_629">
<rect width="22" height="22" fill="white" transform="translate(0.415161 0.403809)"/>
</clipPath>
</defs>
</svg>
