<svg width="19" height="19" viewBox="0 0 19 19" fill="none" xmlns="http://www.w3.org/2000/svg">
<g clip-path="url(#clip0_302_645)">
<path d="M17.3325 14.4306C17.3325 14.7165 17.269 15.0103 17.134 15.2962C16.999 15.5821 16.8243 15.8521 16.594 16.1062C16.2049 16.535 15.7761 16.8447 15.2916 17.0432C14.8152 17.2418 14.299 17.345 13.7431 17.345C12.9331 17.345 12.0675 17.1544 11.1543 16.7653C10.2411 16.3762 9.32782 15.8521 8.42253 15.1929C7.50929 14.5259 6.64371 13.7874 5.81782 12.9694C4.99988 12.1435 4.26135 11.2779 3.60223 10.3726C2.95106 9.46735 2.42694 8.56206 2.04576 7.66471C1.66459 6.75941 1.474 5.89382 1.474 5.06794C1.474 4.52794 1.56929 4.01176 1.75988 3.53529C1.95047 3.05088 2.25223 2.60618 2.67312 2.20912C3.18135 1.70882 3.73723 1.46265 4.32488 1.46265C4.54723 1.46265 4.76959 1.51029 4.96812 1.60559C5.17459 1.70088 5.35723 1.84382 5.50018 2.05029L7.34253 4.64706C7.48547 4.84559 7.58871 5.02823 7.66018 5.20294C7.73165 5.36971 7.77135 5.53647 7.77135 5.68735C7.77135 5.87794 7.71576 6.06853 7.60459 6.25118C7.50135 6.43382 7.35047 6.62441 7.15988 6.815L6.55635 7.44235C6.469 7.52971 6.42929 7.63294 6.42929 7.76C6.42929 7.82353 6.43723 7.87912 6.45312 7.94265C6.47694 8.00618 6.50076 8.05382 6.51665 8.10147C6.65959 8.36353 6.90576 8.705 7.25518 9.11794C7.61253 9.53088 7.99371 9.95176 8.40665 10.3726C8.83547 10.7935 9.24841 11.1826 9.66929 11.54C10.0822 11.8894 10.4237 12.1276 10.6937 12.2706C10.7334 12.2865 10.7811 12.3103 10.8366 12.3341C10.9002 12.3579 10.9637 12.3659 11.0352 12.3659C11.1702 12.3659 11.2734 12.3182 11.3608 12.2309L11.9643 11.6353C12.1628 11.4368 12.3534 11.2859 12.5361 11.1906C12.7187 11.0794 12.9014 11.0238 13.0999 11.0238C13.2508 11.0238 13.4096 11.0556 13.5843 11.1271C13.759 11.1985 13.9416 11.3018 14.1402 11.4368L16.7687 13.3029C16.9752 13.4459 17.1181 13.6126 17.2055 13.8112C17.2849 14.0097 17.3325 14.2082 17.3325 14.4306Z" stroke="#012386" stroke-width="1.58824" stroke-miterlimit="10"/>
<path opacity="0.4" d="M12.1946 4.63916H16.1652" stroke="#012386" stroke-width="1.58824" stroke-linecap="round" stroke-linejoin="round"/>
<path opacity="0.4" d="M14.1798 6.6244V2.65381" stroke="#012386" stroke-width="1.58824" stroke-linecap="round" stroke-linejoin="round"/>
</g>
<defs>
<clipPath id="clip0_302_645">
<rect width="18" height="18" fill="white" transform="translate(0.415161 0.403809)"/>
</clipPath>
</defs>
</svg>
