<svg width="25" height="25" viewBox="0 0 25 25" fill="none" xmlns="http://www.w3.org/2000/svg">
<path d="M5.28516 21.6152C4.88516 21.6152 4.53516 21.4652 4.23516 21.1652C3.93516 20.8652 3.78516 20.5152 3.78516 20.1152V5.11523C3.78516 4.71523 3.93516 4.36523 4.23516 4.06523C4.53516 3.76523 4.88516 3.61523 5.28516 3.61523H20.2852C20.6852 3.61523 21.0352 3.76523 21.3352 4.06523C21.6352 4.36523 21.7852 4.71523 21.7852 5.11523V20.1152C21.7852 20.5152 21.6352 20.8652 21.3352 21.1652C21.0352 21.4652 20.6852 21.6152 20.2852 21.6152H5.28516ZM5.28516 5.11523V20.1152H20.2852V5.11523H17.6852V11.4152C17.6852 11.5717 17.6227 11.6859 17.4977 11.7577C17.3727 11.8294 17.2435 11.8236 17.1102 11.7402L15.6102 10.8402C15.4768 10.7569 15.3518 10.7152 15.2352 10.7152C15.1185 10.7152 14.9935 10.7569 14.8602 10.8402L13.3602 11.7402C13.2268 11.8236 13.0977 11.8294 12.9727 11.7577C12.8477 11.6859 12.7852 11.5717 12.7852 11.4152V5.11523H5.28516Z" fill="#737891"/>
</svg>
