<svg width="24" height="24" viewBox="0 0 24 24" fill="none" xmlns="http://www.w3.org/2000/svg">
<path d="M4.5 21C4.1 21 3.75 20.85 3.45 20.55C3.15 20.25 3 19.9 3 19.5V4.5C3 4.1 3.15 3.75 3.45 3.45C3.75 3.15 4.1 3 4.5 3H19.5C19.9 3 20.25 3.15 20.55 3.45C20.85 3.75 21 4.1 21 4.5V19.5C21 19.9 20.85 20.25 20.55 20.55C20.25 20.85 19.9 21 19.5 21H4.5ZM4.5 4.5V19.5H19.5V4.5H16.9V10.8C16.9 10.9565 16.8375 11.0706 16.7125 11.1425C16.5875 11.2141 16.4584 11.2084 16.325 11.125L14.825 10.225C14.6916 10.1417 14.5666 10.1 14.45 10.1C14.3333 10.1 14.2083 10.1417 14.075 10.225L12.575 11.125C12.4416 11.2084 12.3125 11.2141 12.1875 11.1425C12.0625 11.0706 12 10.9565 12 10.8V4.5H4.5Z" fill="#012386"/>
</svg>
