<svg width="48" height="48" viewBox="0 0 48 48" fill="none" xmlns="http://www.w3.org/2000/svg">
<rect x="0.0136719" y="0.618164" width="47" height="47" rx="4" fill="#ADAEAF"/>
<path fill-rule="evenodd" clip-rule="evenodd" d="M28.9512 23.1856C29.4023 22.7344 30.1348 22.7344 30.5801 23.1797L30.5859 23.1856L37.5059 30.1055C37.957 30.5566 37.957 31.2832 37.5059 31.7344L30.5859 38.6602C30.1348 39.1113 29.4023 39.1113 28.9512 38.6602C28.5 38.209 28.5 37.4766 28.9512 37.0254L35.0566 30.9199L28.9512 24.8145C28.5 24.3691 28.5 23.6367 28.9512 23.1856Z" fill="white"/>
<path fill-rule="evenodd" clip-rule="evenodd" d="M10.1543 30.9199C10.1543 30.2812 10.6699 29.7656 11.3086 29.7656H35.5371C36.1758 29.7656 36.6914 30.2812 36.6914 30.9199C36.6914 31.5586 36.1758 32.0742 35.5371 32.0742H11.3086C10.6699 32.0742 10.1543 31.5586 10.1543 30.9199ZM19.0488 9.33984C19.5 9.79102 19.5 10.5176 19.0488 10.9687L12.9375 17.0801L19.043 23.1855C19.4941 23.6367 19.4941 24.3691 19.043 24.8203C18.5918 25.2715 17.8594 25.2715 17.4082 24.8203L10.4941 17.8945C10.043 17.4434 10.043 16.7109 10.4941 16.2656L17.4141 9.33984C17.8652 8.88867 18.5977 8.88867 19.0488 9.33984Z" fill="white"/>
<path fill-rule="evenodd" clip-rule="evenodd" d="M11.3086 17.0801C11.3086 16.4414 11.8242 15.9258 12.4629 15.9258H36.6914C37.3301 15.9258 37.8457 16.4414 37.8457 17.0801C37.8457 17.7187 37.3301 18.2344 36.6914 18.2344H12.4629C11.8242 18.2285 11.3086 17.7129 11.3086 17.0801Z" fill="white"/>
</svg>
