<svg width="48" height="48" viewBox="0 0 48 48" fill="none" xmlns="http://www.w3.org/2000/svg">
<rect x="0.0136719" y="0.460693" width="47" height="47" rx="4" fill="#ADAEAF"/>
<path d="M22.1624 14.6573C22.1128 14.6589 22.0634 14.6638 22.0146 14.6723H12.6165C12.3347 14.6723 12.0644 14.7842 11.8652 14.9835C11.6659 15.1828 11.554 15.453 11.554 15.7348V37.516C11.554 37.7978 11.6659 38.068 11.8652 38.2673C12.0644 38.4665 12.3347 38.5785 12.6165 38.5785H29.0852C29.367 38.5785 29.6372 38.4665 29.8365 38.2673C30.0357 38.068 30.1477 37.7978 30.1477 37.516V22.8137C30.1789 22.6242 30.1581 22.4299 30.0877 22.2513C30.0172 22.0727 29.8997 21.9165 29.7476 21.7993L23.0157 15.0674C22.9148 14.9377 22.7853 14.8332 22.6372 14.7621C22.4891 14.6909 22.3266 14.6551 22.1624 14.6573ZM13.679 16.7973H21.1165V22.47C21.0889 22.6384 21.1022 22.8109 21.1554 22.973C21.2086 23.1351 21.3 23.2821 21.4219 23.4014C21.4247 23.4042 21.4274 23.4069 21.4302 23.4097C21.4352 23.4141 21.4401 23.4186 21.4452 23.423C21.5644 23.537 21.7085 23.6217 21.8661 23.6704C22.0237 23.7191 22.1905 23.7305 22.3533 23.7035H28.0227V36.4535H13.679V16.7973ZM23.2415 18.2997L26.5203 21.5785H23.2415V18.2997Z" fill="white"/>
<path d="M27.4749 9.3431C27.4254 9.34519 27.3762 9.35075 27.3275 9.3597H17.929C17.6508 9.35973 17.3744 9.47424 17.1777 9.67093C16.981 9.86761 16.8665 10.144 16.8665 10.4222V13.3441H18.9915V11.4847H26.429V15.8239L28.996 18.3909H33.3352V31.1409H31.4758V33.2659H34.3977C34.6759 33.2659 34.9523 33.1514 35.149 32.9547C35.3457 32.758 35.4602 32.4816 35.4602 32.2034V17.5007C35.5222 17.1239 35.3624 16.7188 35.0597 16.4859L28.3278 9.75399C28.1272 9.49563 27.8019 9.33893 27.4749 9.3431ZM28.554 12.9871L31.8328 16.2659H28.554V12.9871Z" fill="white"/>
</svg>
