<svg width="48" height="48" viewBox="0 0 48 48" fill="none" xmlns="http://www.w3.org/2000/svg">
<rect x="0.403809" y="0.775635" width="47" height="47" rx="4" fill="#ADAEAF"/>
<g clip-path="url(#clip0_302_822)">
<path fill-rule="evenodd" clip-rule="evenodd" d="M16.0513 18.7539C15.0163 18.7539 14.1763 17.9139 14.1763 16.8789C14.1763 15.8439 15.0163 15.0039 16.0513 15.0039C17.0863 15.0039 17.9263 15.8439 17.9263 16.8789C17.9263 17.9139 17.0863 18.7539 16.0513 18.7539ZM16.0513 13.1289C13.9803 13.1289 12.3013 14.808 12.3013 16.8789C12.3013 18.9498 13.9803 20.6289 16.0513 20.6289C18.1222 20.6289 19.8013 18.9498 19.8013 16.8789C19.8013 14.808 18.1222 13.1289 16.0513 13.1289ZM36.6763 25.4364L31.0513 19.6914L21.7316 29.1705L17.9263 25.3164L10.4263 32.1948V13.1289C10.4263 12.0939 11.2663 11.2539 12.3013 11.2539H34.8013C35.8363 11.2539 36.6763 12.0939 36.6763 13.1289V25.4364ZM36.6763 35.6289C36.6763 36.6639 35.8363 37.5039 34.8013 37.5039H29.9563L23.0488 30.5055L31.0513 22.503L36.6763 28.128V35.6289ZM12.3013 37.5039C11.2663 37.5039 10.4263 36.6639 10.4263 35.6289V34.7486L17.8747 28.0773L27.3022 37.5039H12.3013ZM34.8013 9.37891H12.3013C10.2303 9.37891 8.55127 11.058 8.55127 13.1289V35.6289C8.55127 37.6998 10.2303 39.3789 12.3013 39.3789H34.8013C36.8722 39.3789 38.5513 37.6998 38.5513 35.6289V13.1289C38.5513 11.058 36.8722 9.37891 34.8013 9.37891Z" fill="white"/>
</g>
<defs>
<clipPath id="clip0_302_822">
<rect width="30" height="30" fill="white" transform="translate(8.55127 9.37891)"/>
</clipPath>
</defs>
</svg>
