<svg width="48" height="48" viewBox="0 0 48 48" fill="none" xmlns="http://www.w3.org/2000/svg">
<rect x="0.403809" y="0.618164" width="47" height="47" rx="4" fill="#ADAEAF"/>
<path d="M17.4454 26.4779C16.5261 26.5223 15.6456 26.8678 14.9358 27.4629C14.226 28.0579 13.725 28.8705 13.5079 29.7788C13.4129 30.1622 12.9929 30.3273 12.6279 30.2689C12.2304 30.2054 12.0279 29.6722 12.1779 29.2151C12.7104 27.5621 13.7954 26.2951 15.2129 25.6095C14.589 25.1008 14.1362 24.4078 13.917 23.6264C13.6979 22.8449 13.7232 22.0136 13.9895 21.2474C14.2558 20.4812 14.7499 19.8179 15.4035 19.3494C16.0571 18.8808 16.8379 18.6301 17.6379 18.6319C19.7729 18.6319 21.5054 20.3941 21.5054 22.5574C21.5054 23.7559 20.9729 24.83 20.1379 25.5537C21.5979 26.2164 22.7079 27.4987 23.3054 29.1517C23.4704 29.6087 23.3629 30.0632 22.9879 30.2689C22.8835 30.3071 22.7725 30.3228 22.6618 30.315C22.5511 30.3071 22.4433 30.2759 22.3452 30.2233C22.2471 30.1708 22.1609 30.098 22.092 30.0096C22.0232 29.9213 21.9732 29.8193 21.9454 29.7103C21.4454 27.7602 19.8954 26.5439 17.9329 26.4728C17.7706 26.4849 17.6078 26.4866 17.4454 26.4779ZM37.4854 31.1322V27.4199C37.4854 26.8512 38.0004 26.3992 38.5979 26.3992C38.7323 26.3948 38.8663 26.4179 38.9917 26.4673C39.1171 26.5166 39.2315 26.5912 39.3279 26.6865C39.4243 26.7818 39.5008 26.8959 39.5527 27.0219C39.6047 27.1479 39.6311 27.2833 39.6304 27.4199V32.0438C39.6304 33.0539 39.2353 34.0227 38.532 34.737C37.8288 35.4512 36.8749 35.8525 35.8804 35.8525H11.7829C9.21787 35.8525 7.13037 33.9228 7.13037 31.5359V14.6835C7.13037 13.6733 7.52546 12.7045 8.22872 11.9903C8.93198 11.276 9.88581 10.8747 10.8804 10.8747L34.9754 10.8696C37.5429 10.8696 39.6304 12.7994 39.6304 15.1888L39.6254 22.6031C39.6079 23.1541 39.1754 23.5502 38.5979 23.5502C38.0154 23.5502 37.5054 23.1541 37.4854 22.5981L37.4779 15.1888C37.4779 13.9344 36.3529 13.0584 34.9779 13.0584H11.7804C11.1173 13.0584 10.4814 13.3259 10.0126 13.8021C9.54376 14.2783 9.28037 14.9241 9.28037 15.5976V31.5385C9.28037 32.7903 10.4054 33.6739 11.7804 33.6739H34.9829C35.6459 33.6739 36.2818 33.4064 36.7506 32.9302C37.2195 32.454 37.4829 31.8082 37.4829 31.1347L37.4854 31.1322ZM17.6404 20.3484C17.0816 20.3756 16.5545 20.6202 16.1685 21.0315C15.7825 21.4428 15.5672 21.9892 15.5672 22.5574C15.5672 23.1256 15.7825 23.6721 16.1685 24.0834C16.5545 24.4947 17.0816 24.7393 17.6404 24.7665C18.1992 24.7393 18.7262 24.4947 19.1122 24.0834C19.4982 23.6721 19.7136 23.1256 19.7136 22.5574C19.7136 21.9892 19.4982 21.4428 19.1122 21.0315C18.7262 20.6202 18.1992 20.3756 17.6404 20.3484ZM32.6904 30.18H27.0054C26.3379 30.18 25.7804 29.7484 25.7804 29.1897C25.7804 28.6311 26.3379 28.202 27.0054 28.202H32.6854C33.3554 28.202 33.9104 28.6311 33.9104 29.1923C33.9104 29.7509 33.3529 30.18 32.6854 30.18H32.6904ZM32.6904 20.6073H27.0054C26.3379 20.6073 25.7804 20.1782 25.7804 19.6196C25.7804 19.061 26.3379 18.6319 27.0054 18.6319H32.6854C33.3554 18.6319 33.9104 19.061 33.9104 19.6221C33.9104 20.1808 33.3529 20.6073 32.6854 20.6073H32.6904ZM32.6904 25.0001H27.0054C26.3379 25.0001 25.7804 24.5735 25.7804 24.0124C25.7804 23.4538 26.3379 23.0246 27.0054 23.0246H32.6854C33.3529 23.0246 33.9104 23.4538 33.9104 24.0149C33.9104 24.5735 33.3554 25.0001 32.6854 25.0001H32.6904Z" fill="white"/>
</svg>
