<svg width="48" height="48" viewBox="0 0 48 48" fill="none" xmlns="http://www.w3.org/2000/svg">
<rect x="0.403809" y="0.460693" width="47" height="47" rx="4" fill="#ADAEAF"/>
<g clip-path="url(#clip0_302_791)">
<path d="M36.5585 33.8888L31.6119 28.9421C31.4347 28.7654 31.1947 28.6662 30.9445 28.6662C30.6943 28.6662 30.4544 28.7654 30.2772 28.9421L30.0229 29.1976L28.3242 27.499C29.9996 25.6115 30.874 23.1456 30.7619 20.6243C30.6498 18.103 29.5602 15.7244 27.7239 13.993C25.8877 12.2616 23.4492 11.3135 20.9257 11.3496C18.4021 11.3858 15.9919 12.4035 14.206 14.1868C12.4202 15.9701 11.3991 18.3789 11.3594 20.9024C11.3196 23.4259 12.2643 25.8657 13.9931 27.7044C15.722 29.5431 18.0989 30.6361 20.6201 30.7518C23.1413 30.8674 25.6083 29.9965 27.4982 28.3238L29.198 30.0225L28.9425 30.2768C28.7655 30.454 28.6661 30.6942 28.6661 30.9447C28.6661 31.1952 28.7655 31.4354 28.9425 31.6126L33.8892 36.557C33.9767 36.6445 34.0807 36.714 34.1951 36.7614C34.3095 36.8088 34.4321 36.8332 34.556 36.8332C34.6798 36.8332 34.8024 36.8088 34.9168 36.7614C35.0312 36.714 35.1352 36.6445 35.2227 36.557L36.5585 35.2235C36.7349 35.0462 36.834 34.8062 36.834 34.5561C36.834 34.306 36.7349 34.0661 36.5585 33.8888ZM12.5672 21.0835C12.5672 19.399 13.0667 17.7524 14.0025 16.3518C14.9383 14.9513 16.2685 13.8597 17.8247 13.2151C19.3809 12.5705 21.0933 12.4018 22.7454 12.7304C24.3975 13.0591 25.915 13.8702 27.1061 15.0613C28.2971 16.2523 29.1083 17.7699 29.4369 19.4219C29.7655 21.074 29.5969 22.7864 28.9522 24.3426C28.3076 25.8989 27.216 27.229 25.8155 28.1648C24.4149 29.1006 22.7683 29.6001 21.0839 29.6001C18.8259 29.5977 16.6611 28.6996 15.0644 27.1029C13.4678 25.5063 12.5697 23.3415 12.5672 21.0835ZM34.5565 35.5746L29.9249 30.9453L30.9445 29.9268L35.5762 34.5561L34.5565 35.5746ZM27.5005 24.2918V17.8751C27.5002 17.6432 27.4079 17.4208 27.2439 17.2567C27.0799 17.0927 26.8575 17.0004 26.6255 17.0001H24.8755C24.6436 17.0004 24.4212 17.0927 24.2572 17.2567C24.0931 17.4208 24.0009 17.6432 24.0005 17.8751V24.2918C24.0009 24.5238 24.0931 24.7461 24.2572 24.9102C24.4212 25.0742 24.6436 25.1665 24.8755 25.1668H26.6255C26.8575 25.1665 27.0799 25.0742 27.2439 24.9102C27.4079 24.7461 27.5002 24.5238 27.5005 24.2918ZM26.3339 24.0001H25.1672V18.1668H26.3339V24.0001ZM21.9589 14.6668H20.2089C19.9769 14.6671 19.7545 14.7594 19.5905 14.9234C19.4265 15.0874 19.3342 15.3098 19.3339 15.5418V24.2918C19.3342 24.5238 19.4265 24.7461 19.5905 24.9102C19.7545 25.0742 19.9769 25.1665 20.2089 25.1668H21.9589C22.1908 25.1665 22.4132 25.0742 22.5773 24.9102C22.7413 24.7461 22.8336 24.5238 22.8339 24.2918V15.5418C22.8336 15.3098 22.7413 15.0874 22.5773 14.9234C22.4132 14.7594 22.1908 14.6671 21.9589 14.6668ZM21.6672 24.0001H20.5005V15.8335H21.6672V24.0001ZM17.2922 19.3335H15.5422C15.3102 19.3338 15.0879 19.426 14.9238 19.5901C14.7598 19.7541 14.6675 19.9765 14.6672 20.2085V24.2918C14.6675 24.5238 14.7598 24.7461 14.9238 24.9102C15.0879 25.0742 15.3102 25.1665 15.5422 25.1668H17.2922C17.5242 25.1665 17.7466 25.0742 17.9106 24.9102C18.0746 24.7461 18.1669 24.5238 18.1672 24.2918V20.2085C18.1669 19.9765 18.0746 19.7541 17.9106 19.5901C17.7466 19.426 17.5242 19.3338 17.2922 19.3335ZM17.0005 24.0001H15.8339V20.5001H17.0005V24.0001Z" fill="white"/>
<circle cx="21.0593" cy="20.8488" r="7.97312" fill="#ADAEAF"/>
</g>
<defs>
<clipPath id="clip0_302_791">
<rect width="28" height="28" fill="white" transform="translate(10.0005 10)"/>
</clipPath>
</defs>
</svg>
