<svg width="48" height="48" viewBox="0 0 48 48" fill="none" xmlns="http://www.w3.org/2000/svg">
<rect x="0.0136719" y="0.775635" width="47" height="47" rx="4" fill="#ADAEAF"/>
<path d="M29.7637 15.2756C29.6256 15.2756 29.5137 15.3876 29.5137 15.5256V18.0256C29.5137 18.1637 29.6256 18.2756 29.7637 18.2756H32.2637C32.4017 18.2756 32.5137 18.1637 32.5137 18.0256V15.5256C32.5137 15.3876 32.4017 15.2756 32.2637 15.2756H29.7637ZM29.5137 33.2756V32.5256C29.5137 32.1114 29.8495 31.7756 30.2637 31.7756C30.6779 31.7756 31.0137 32.1114 31.0137 32.5256V33.2756H32.5137V32.5256C32.5137 32.1114 32.8495 31.7756 33.2637 31.7756C33.6779 31.7756 34.0137 32.1114 34.0137 32.5256V34.0256C34.0137 34.4398 33.6779 34.7756 33.2637 34.7756H27.2637C26.8495 34.7756 26.5137 34.4398 26.5137 34.0256V32.5256C26.5137 32.1114 26.8495 31.7756 27.2637 31.7756C27.6779 31.7756 28.0137 32.1114 28.0137 32.5256V33.2756H29.5137ZM25.0137 22.7756H25.7637C26.1779 22.7756 26.5137 23.1114 26.5137 23.5256C26.5137 23.9398 26.1779 24.2756 25.7637 24.2756H22.7637C22.3495 24.2756 22.0137 23.9398 22.0137 23.5256C22.0137 23.1114 22.3495 22.7756 22.7637 22.7756H23.5137V21.2756H21.2637C20.8495 21.2756 20.5137 20.9398 20.5137 20.5256C20.5137 20.1114 20.8495 19.7756 21.2637 19.7756H25.7637C26.1779 19.7756 26.5137 20.1114 26.5137 20.5256C26.5137 20.9398 26.1779 21.2756 25.7637 21.2756H25.0137V22.7756ZM32.5137 24.2756H31.7637C31.3495 24.2756 31.0137 23.9398 31.0137 23.5256C31.0137 23.1114 31.3495 22.7756 31.7637 22.7756H32.5137V22.0256C32.5137 21.6114 32.8495 21.2756 33.2637 21.2756C33.6779 21.2756 34.0137 21.6114 34.0137 22.0256V25.0256C34.0137 25.4398 33.6779 25.7756 33.2637 25.7756C32.8495 25.7756 32.5137 25.4398 32.5137 25.0256V24.2756ZM25.0137 27.2756H24.2637C23.8495 27.2756 23.5137 26.9398 23.5137 26.5256C23.5137 26.1114 23.8495 25.7756 24.2637 25.7756H25.7637C26.1779 25.7756 26.5137 26.1114 26.5137 26.5256V29.5256C26.5137 29.9398 26.1779 30.2756 25.7637 30.2756H21.2637C20.8495 30.2756 20.5137 29.9398 20.5137 29.5256C20.5137 29.1114 20.8495 28.7756 21.2637 28.7756H25.0137V27.2756ZM29.7637 13.7756H32.2637C33.2302 13.7756 34.0137 14.5591 34.0137 15.5256V18.0256C34.0137 18.9921 33.2302 19.7756 32.2637 19.7756H29.7637C28.7972 19.7756 28.0137 18.9921 28.0137 18.0256V15.5256C28.0137 14.5591 28.7972 13.7756 29.7637 13.7756ZM14.7637 13.7756H17.2637C18.2302 13.7756 19.0137 14.5591 19.0137 15.5256V18.0256C19.0137 18.9921 18.2302 19.7756 17.2637 19.7756H14.7637C13.7972 19.7756 13.0137 18.9921 13.0137 18.0256V15.5256C13.0137 14.5591 13.7972 13.7756 14.7637 13.7756ZM14.7637 15.2756C14.6256 15.2756 14.5137 15.3876 14.5137 15.5256V18.0256C14.5137 18.1637 14.6256 18.2756 14.7637 18.2756H17.2637C17.4017 18.2756 17.5137 18.1637 17.5137 18.0256V15.5256C17.5137 15.3876 17.4017 15.2756 17.2637 15.2756H14.7637ZM14.7637 28.7756H17.2637C18.2302 28.7756 19.0137 29.5591 19.0137 30.5256V33.0256C19.0137 33.9921 18.2302 34.7756 17.2637 34.7756H14.7637C13.7972 34.7756 13.0137 33.9921 13.0137 33.0256V30.5256C13.0137 29.5591 13.7972 28.7756 14.7637 28.7756ZM14.7637 30.2756C14.6256 30.2756 14.5137 30.3876 14.5137 30.5256V33.0256C14.5137 33.1637 14.6256 33.2756 14.7637 33.2756H17.2637C17.4017 33.2756 17.5137 33.1637 17.5137 33.0256V30.5256C17.5137 30.3876 17.4017 30.2756 17.2637 30.2756H14.7637ZM25.0137 15.2756H21.2637C20.8495 15.2756 20.5137 14.9398 20.5137 14.5256C20.5137 14.1114 20.8495 13.7756 21.2637 13.7756H25.7637C26.1779 13.7756 26.5137 14.1114 26.5137 14.5256V17.5256C26.5137 17.9398 26.1779 18.2756 25.7637 18.2756C25.3495 18.2756 25.0137 17.9398 25.0137 17.5256V15.2756ZM21.2637 18.2756C20.8495 18.2756 20.5137 17.9398 20.5137 17.5256C20.5137 17.1114 20.8495 16.7756 21.2637 16.7756H22.7637C23.1779 16.7756 23.5137 17.1114 23.5137 17.5256C23.5137 17.9398 23.1779 18.2756 22.7637 18.2756H21.2637ZM13.7637 27.2756C13.3495 27.2756 13.0137 26.9398 13.0137 26.5256C13.0137 26.1114 13.3495 25.7756 13.7637 25.7756H16.7637C17.1779 25.7756 17.5137 26.1114 17.5137 26.5256C17.5137 26.9398 17.1779 27.2756 16.7637 27.2756H13.7637ZM19.7637 27.2756C19.3495 27.2756 19.0137 26.9398 19.0137 26.5256C19.0137 26.1114 19.3495 25.7756 19.7637 25.7756H21.2637C21.6779 25.7756 22.0137 26.1114 22.0137 26.5256C22.0137 26.9398 21.6779 27.2756 21.2637 27.2756H19.7637ZM22.0137 33.2756V34.0256C22.0137 34.4398 21.6779 34.7756 21.2637 34.7756C20.8495 34.7756 20.5137 34.4398 20.5137 34.0256V32.5256C20.5137 32.1114 20.8495 31.7756 21.2637 31.7756H24.2637C24.6779 31.7756 25.0137 32.1114 25.0137 32.5256C25.0137 32.9398 24.6779 33.2756 24.2637 33.2756H22.0137ZM19.0137 22.7756H19.7637C20.1779 22.7756 20.5137 23.1114 20.5137 23.5256C20.5137 23.9398 20.1779 24.2756 19.7637 24.2756H18.2637C17.8495 24.2756 17.5137 23.9398 17.5137 23.5256V22.7756H16.7637C16.3495 22.7756 16.0137 22.4398 16.0137 22.0256C16.0137 21.6114 16.3495 21.2756 16.7637 21.2756H18.2637C18.6779 21.2756 19.0137 21.6114 19.0137 22.0256V22.7756ZM13.0137 22.0256C13.0137 21.6114 13.3495 21.2756 13.7637 21.2756C14.1779 21.2756 14.5137 21.6114 14.5137 22.0256V23.5256C14.5137 23.9398 14.1779 24.2756 13.7637 24.2756C13.3495 24.2756 13.0137 23.9398 13.0137 23.5256V22.0256ZM28.0137 22.0256C28.0137 21.6114 28.3495 21.2756 28.7637 21.2756C29.1779 21.2756 29.5137 21.6114 29.5137 22.0256V25.0256C29.5137 25.4398 29.1779 25.7756 28.7637 25.7756C28.3495 25.7756 28.0137 25.4398 28.0137 25.0256V22.0256ZM31.0137 28.7756V28.0256C31.0137 27.6114 31.3495 27.2756 31.7637 27.2756H33.2637C33.6779 27.2756 34.0137 27.6114 34.0137 28.0256C34.0137 28.4398 33.6779 28.7756 33.2637 28.7756H32.5137V29.5256C32.5137 29.9398 32.1779 30.2756 31.7637 30.2756H28.7637C28.3495 30.2756 28.0137 29.9398 28.0137 29.5256V28.0256C28.0137 27.6114 28.3495 27.2756 28.7637 27.2756C29.1779 27.2756 29.5137 27.6114 29.5137 28.0256V28.7756H31.0137ZM10.0137 16.0256C10.0137 16.4398 9.67789 16.7756 9.26367 16.7756C8.84946 16.7756 8.51367 16.4398 8.51367 16.0256V13.0256C8.51367 10.9546 10.1926 9.27563 12.2637 9.27563H15.2637C15.6779 9.27563 16.0137 9.61142 16.0137 10.0256C16.0137 10.4398 15.6779 10.7756 15.2637 10.7756H12.2637C11.021 10.7756 10.0137 11.783 10.0137 13.0256V16.0256ZM31.7637 10.7756C31.3495 10.7756 31.0137 10.4398 31.0137 10.0256C31.0137 9.61142 31.3495 9.27563 31.7637 9.27563H34.7637C36.8347 9.27563 38.5137 10.9546 38.5137 13.0256V16.0256C38.5137 16.4398 38.1779 16.7756 37.7637 16.7756C37.3495 16.7756 37.0137 16.4398 37.0137 16.0256V13.0256C37.0137 11.783 36.0063 10.7756 34.7637 10.7756H31.7637ZM15.2637 37.7756C15.6779 37.7756 16.0137 38.1114 16.0137 38.5256C16.0137 38.9398 15.6779 39.2756 15.2637 39.2756H12.2637C10.1926 39.2756 8.51367 37.5967 8.51367 35.5256V32.5256C8.51367 32.1114 8.84946 31.7756 9.26367 31.7756C9.67789 31.7756 10.0137 32.1114 10.0137 32.5256V35.5256C10.0137 36.7683 11.021 37.7756 12.2637 37.7756H15.2637ZM37.0137 32.5256C37.0137 32.1114 37.3495 31.7756 37.7637 31.7756C38.1779 31.7756 38.5137 32.1114 38.5137 32.5256V35.5256C38.5137 37.5967 36.8347 39.2756 34.7637 39.2756H31.7637C31.3495 39.2756 31.0137 38.9398 31.0137 38.5256C31.0137 38.1114 31.3495 37.7756 31.7637 37.7756H34.7637C36.0063 37.7756 37.0137 36.7683 37.0137 35.5256V32.5256Z" fill="white"/>
</svg>
