<svg width="137" height="134" viewBox="0 0 137 134" fill="none" xmlns="http://www.w3.org/2000/svg">
<path d="M75.5428 7.02478C74.6236 8.65609 73.2243 10.0052 72.1997 11.6006C64.4538 23.6251 65.2617 38.6557 75.8882 49.1155C75.695 50.7981 67.7208 54.0402 67.6388 54.4865C67.9725 57.3182 68.195 60.5449 67.5158 63.2997C68.8566 63.6793 70.4608 63.8178 71.7606 64.2333C72.147 64.3565 72.4046 64.0692 72.229 64.7104L51.6435 101.687C47.5686 112.07 64.9456 119.764 72.0826 109.361C79.4186 98.66 85.7535 84.7221 92.2699 73.3235C92.4631 72.9849 93.0662 71.7743 93.5931 71.9538C94.0146 72.0975 98.3238 75.3909 98.921 75.9244C106.011 82.2341 109.723 90.7959 110.238 99.5886C110.718 107.766 111.017 120.38 110.238 128.398C109.963 131.194 108.458 133.754 104.951 134H6.36838C2.65058 133.82 0.818028 131.143 0.765335 128.1C0.75948 127.644 1.11077 127.075 1.11077 126.479C1.05222 116.999 0.261827 105.667 1.09906 96.408C2.674 78.9869 23.1131 63.7152 42.7032 63.3048L42.6505 54.071C18.6751 45.7247 16.5557 16.2278 38.9386 4.83945C50.9878 -1.29077 64.3601 0.273843 75.5486 7.01965L75.5428 7.02478ZM42.633 76.7913C33.2946 76.7451 23.9328 81.9212 18.8157 88.6003C18.1892 89.4211 16.2044 91.9912 16.5791 92.7196C21.3449 97.0236 25.4023 102.456 30.6423 106.324C35.2618 109.73 37.4398 109.541 41.6084 105.688C45.4081 102.169 48.4702 97.393 51.743 93.4686L42.633 76.7862V76.7913ZM55.4667 124.71C56.5147 119.846 52.229 116.42 46.9538 118.692C44.5416 119.734 43.1892 122.278 40.7536 123.176C37.3871 124.412 35.2735 123.212 32.51 121.637C26.0756 117.979 20.1915 112.875 13.8567 109.038V124.71H55.4667Z" fill="#012386"/>
<path d="M96.2804 55.2125L66.5101 107.845C62.5181 112.815 53.4157 108.256 54.8733 103.564L85.0243 50.8595C63.7853 38.0058 68.0391 9.16873 92.7109 1.6755C116.484 -5.54534 140.567 11.6151 136.2 33.1543C133.041 48.7266 113.992 59.3446 96.2804 55.2125ZM102.843 7.22604C70.7758 8.59826 73.209 51.1113 106.436 48.778C136.89 46.64 134.332 5.87952 102.843 7.22604Z" fill="#012386"/>
</svg>
